<?xml version="1.0" encoding="utf-8"?>
<!-- Generator: Adobe Illustrator 22.0.1, SVG Export Plug-In . SVG Version: 6.00 Build 0)  -->
<svg version="1.1" id="Ebene_1" xmlns="http://www.w3.org/2000/svg" xmlns:xlink="http://www.w3.org/1999/xlink" x="0px" y="0px"
	 viewBox="0 0 25.1 26.2" style="enable-background:new 0 0 25.1 26.2;" xml:space="preserve">
<g>
	<path d="M20,15c0,4.8-3.9,8.8-8.8,8.8S2.5,19.8,2.5,15V7.5H10V15c0,0.7,0.6,1.3,1.2,1.3s1.2-0.6,1.2-1.3V0H10v5H2.5V0H0v15
		c0,6.2,5,11.2,11.2,11.2s11.3-5,11.3-11.2v-5H20V15z"/>
	<path d="M17.5,5V2.5h5V0H15v2.5V5v2.5V10v5c0,2.1-1.7,3.8-3.8,3.8S7.5,17.1,7.5,15v-5H5v5c0,3.4,2.8,6.3,6.2,6.3s6.3-2.8,6.3-6.2
		v-2.5v-5H25V5H17.5z"/>
</g>
</svg>
