<?xml version="1.0" encoding="utf-8"?>
<!-- Generator: Adobe Illustrator 22.0.1, SVG Export Plug-In . SVG Version: 6.00 Build 0)  -->
<svg version="1.1" id="Ebene_1" xmlns="http://www.w3.org/2000/svg" xmlns:xlink="http://www.w3.org/1999/xlink" x="0px" y="0px"
	 viewBox="0 0 144.6 17.2" style="enable-background:new 0 0 144.6 17.2;" xml:space="preserve">
<g>
	<path d="M139.3,11.3l4.9-5.9V3.1h-8.8v2.2h5.1l-5,6.1v2.1h9.2v-2.2H139.3z M124.2,3.1v10.3h2.9V7.7c0-1.5,0.8-2.6,2.2-2.6
		c1.1,0,1.6,0.7,1.6,1.7v6.6h2.9V6.6c0-2.5-1.6-3.7-3.6-3.7c-1.2,0-2.6,0.5-3.3,1.7h-0.1V3.1H124.2z M117.6,5c1.3,0,1.9,0.8,1.9,1.8
		v0.1h-3.9C115.7,5.8,116.3,5,117.6,5 M119.9,9.9c-0.1,1.3-1,1.6-2.1,1.6c-1.3,0-2.1-0.8-2.2-2.5h6.9V7.6c0-2.7-1.5-4.8-4.9-4.8
		c-3.2,0-5.1,2.2-5.1,5.4c0,3.6,2,5.4,5.1,5.4c2.9,0,4.7-1.2,5-3.5L119.9,9.9z M111.7,3c-1.4,0-2.7,0.4-3.2,2.1h-0.1V3.1h-2.9v10.3
		h2.9V8.8c0-2.4,1.4-3.3,3.2-3.3h0.3V3H111.7z M103.4,5.8h-5.7V2.5h6.7V0h-9.7v13.5h3V8.2h5.7V5.8z M82.3,11.5
		c-1.4,0-2.2-0.9-2.2-3.2c0-2.3,0.8-3.2,2.2-3.2c1.3,0,2.3,0.8,2.3,3.2S83.6,11.5,82.3,11.5 M84.5,0v4.3c-0.6-0.9-1.9-1.4-3.1-1.4
		c-2.4,0-4.3,1.5-4.3,5.4s2,5.4,4.3,5.4c1.4,0,2.6-0.5,3.3-1.7v1.5h2.7V0H84.5z M66,3.1v10.3h2.9V7.7c0-1.5,0.8-2.6,2.2-2.6
		c1.1,0,1.6,0.7,1.6,1.7v6.6h2.9V6.6c0-2.5-1.6-3.7-3.6-3.7c-1.2,0-2.6,0.5-3.3,1.7h-0.1V3.1H66z M59.2,13.7c3,0,4.7-1.4,4.7-4.1
		V3.1H61v6.6c0,1.1-0.7,1.8-1.8,1.8c-1.1,0-1.8-0.7-1.8-1.8V3.1h-2.9v6.5C54.5,12.3,56.2,13.7,59.2,13.7 M42.9,5.1
		c1.4,0,2.2,0.9,2.2,3.2c0,2.3-0.8,3.2-2.2,3.2c-1.3,0-2.3-0.8-2.3-3.2S41.6,5.1,42.9,5.1 M40.7,17.2v-4.9c0.6,0.9,1.9,1.4,3.1,1.4
		c2.4,0,4.3-1.5,4.3-5.4s-1.9-5.4-4.3-5.4c-1.4,0-2.6,0.5-3.3,1.7V3.1h-2.7v14.1H40.7z M30.9,5.1c1.4,0,2.2,0.9,2.2,3.2
		c0,2.3-0.8,3.2-2.2,3.2c-1.3,0-2.3-0.8-2.3-3.2S29.7,5.1,30.9,5.1 M28.7,17.2v-4.9c0.6,0.9,1.9,1.4,3.1,1.4c2.4,0,4.3-1.5,4.3-5.4
		s-1.9-5.4-4.3-5.4c-1.4,0-2.6,0.5-3.3,1.7V3.1h-2.7v14.1H28.7z M16.7,8.3c0-2,0.7-3.2,2.3-3.2s2.3,1.2,2.3,3.2c0,2-0.7,3.2-2.3,3.2
		S16.7,10.3,16.7,8.3 M24.2,8.3c0-3.5-1.9-5.4-5.3-5.4s-5.3,1.9-5.3,5.4c0,3.4,1.9,5.4,5.3,5.4S24.2,11.7,24.2,8.3 M12.1,13.5V0H9
		v5.2H3V0H0v13.5h3V7.6h6v5.8H12.1z"/>
</g>
</svg>
